<?xml version="1.0" encoding="UTF-8"?>
<svg xmlns="http://www.w3.org/2000/svg" xmlns:xlink="http://www.w3.org/1999/xlink" width="138px" height="50px" viewBox="0 0 137 50" version="1.1">
<g id="surface1">
<path style=" stroke:none;fill-rule:nonzero;fill:rgb(0%,0%,0%);fill-opacity:1;" d="M 23.621094 9.722656 C 18.453125 10.703125 14.261719 13.421875 11.398438 17.636719 C 10.347656 19.179688 9.832031 20.234375 9.183594 22.195312 C 7.515625 27.242188 8.089844 32.792969 10.792969 37.425781 C 11.855469 39.265625 14.496094 42.191406 15.753906 42.933594 C 16.625 43.4375 16.609375 43.585938 16.609375 36.179688 C 16.609375 30.6875 16.5625 29.394531 16.402344 29.203125 C 16.269531 29.039062 15.972656 28.949219 15.515625 28.949219 C 14.644531 28.949219 14.378906 28.785156 14.601562 28.398438 C 14.734375 28.148438 19.441406 24.835938 20.875 24.003906 C 21.125 23.84375 21.464844 23.605469 21.628906 23.472656 C 21.90625 23.234375 22.511719 22.804688 23.78125 21.972656 C 24.09375 21.761719 25.097656 21.09375 26.011719 20.472656 C 26.925781 19.847656 27.84375 19.253906 28.019531 19.164062 C 28.464844 18.929688 28.980469 19.0625 29.601562 19.535156 C 29.851562 19.730469 30.117188 19.894531 30.160156 19.894531 C 30.21875 19.894531 31.84375 20.976562 33.761719 22.3125 C 42.042969 28.027344 44.257812 29.542969 44.496094 29.632812 C 45.011719 29.839844 45.175781 29.4375 45.175781 27.910156 C 45.175781 25.460938 44.523438 22.566406 43.417969 20.117188 C 42.578125 18.261719 40.640625 15.722656 38.828125 14.058594 C 38.148438 13.449219 35.816406 11.847656 35.019531 11.445312 C 33.703125 10.777344 31.148438 9.933594 29.746094 9.710938 C 28.300781 9.457031 24.917969 9.472656 23.621094 9.722656 Z M 29.273438 10.464844 C 31.28125 10.792969 32.699219 11.238281 34.472656 12.085938 C 37.113281 13.359375 39.179688 15.128906 41.144531 17.816406 C 42.902344 20.203125 44.023438 23.367188 44.230469 26.453125 C 44.363281 28.355469 44.316406 28.460938 43.550781 28.058594 C 43.210938 27.878906 42.429688 27.359375 41.777344 26.898438 C 41.144531 26.441406 40.230469 25.800781 39.757812 25.488281 C 38.515625 24.6875 30.941406 19.492188 29.792969 18.660156 C 29.246094 18.273438 28.683594 17.964844 28.535156 17.964844 C 28.316406 17.964844 24.667969 20.292969 23.472656 21.199219 C 23.265625 21.363281 22.246094 22.074219 21.183594 22.789062 C 20.136719 23.5 19.101562 24.214844 18.898438 24.375 C 18.691406 24.523438 17.863281 25.089844 17.050781 25.636719 C 16.238281 26.171875 14.761719 27.183594 13.773438 27.863281 C 11.277344 29.585938 11.324219 29.839844 14.054688 29.839844 C 15.339844 29.839844 15.5 29.871094 15.648438 30.136719 C 15.824219 30.464844 15.796875 41.167969 15.621094 41.34375 C 15.351562 41.613281 14.011719 40.4375 12.679688 38.746094 C 11.75 37.574219 10.851562 35.898438 10.214844 34.21875 C 9.417969 32.050781 9.332031 31.664062 9.152344 29.632812 C 8.710938 23.992188 10.585938 18.957031 14.554688 15.140625 C 17.082031 12.722656 19.53125 11.519531 24.136719 10.421875 C 25.039062 10.199219 27.828125 10.230469 29.273438 10.464844 Z M 29.273438 10.464844 "/>
<path style=" stroke:none;fill-rule:nonzero;fill:rgb(0%,0%,0%);fill-opacity:1;" d="M 55.199219 11.238281 C 55.199219 11.386719 55.199219 18.484375 55.214844 27.003906 C 55.214844 38.183594 55.257812 42.5625 55.375 42.710938 C 55.507812 42.859375 55.597656 42.875 55.757812 42.742188 C 55.921875 42.59375 55.953125 40.140625 55.890625 26.886719 C 55.847656 18.261719 55.820312 11.164062 55.820312 11.089844 C 55.789062 10.851562 55.214844 11 55.199219 11.238281 Z M 55.199219 11.238281 "/>
<path style=" stroke:none;fill-rule:nonzero;fill:rgb(0%,0%,0%);fill-opacity:1;" d="M 66.109375 15.707031 C 64.914062 15.765625 64.808594 15.960938 64.808594 18.050781 C 64.808594 19.683594 64.824219 19.730469 65.191406 20.027344 C 65.53125 20.292969 65.796875 20.339844 66.890625 20.339844 C 68.941406 20.339844 68.796875 19.894531 68.796875 26.1875 C 68.796875 30.773438 68.765625 31.488281 68.558594 31.679688 C 68.382812 31.859375 68 31.917969 66.859375 31.917969 C 64.808594 31.917969 64.78125 31.949219 64.839844 34.324219 C 64.882812 36.046875 64.898438 36.132812 65.253906 36.386719 C 65.710938 36.714844 66.035156 36.726562 72.824219 36.699219 C 79.410156 36.667969 78.835938 36.890625 78.835938 34.324219 C 78.835938 31.960938 78.863281 32.007812 76.78125 31.949219 C 75.351562 31.902344 75.113281 31.859375 74.996094 31.605469 C 74.804688 31.265625 74.863281 20.722656 75.039062 20.53125 C 75.113281 20.472656 75.882812 20.382812 76.753906 20.339844 C 77.785156 20.292969 78.433594 20.191406 78.597656 20.054688 C 78.96875 19.746094 78.953125 16.332031 78.582031 16.003906 C 78.363281 15.8125 77.492188 15.765625 72.632812 15.707031 C 69.503906 15.675781 66.566406 15.675781 66.109375 15.707031 Z M 66.109375 15.707031 "/>
<path style=" stroke:none;fill-rule:nonzero;fill:rgb(0%,0%,0%);fill-opacity:1;" d="M 100.0625 15.691406 C 99.398438 15.738281 99.015625 15.824219 98.882812 15.988281 C 98.734375 16.183594 98.675781 17.472656 98.617188 21.957031 L 98.542969 27.6875 L 98.101562 27.6875 C 97.699219 27.6875 97.523438 27.492188 96.136719 25.460938 C 95.308594 24.226562 94.4375 22.9375 94.21875 22.582031 C 93.996094 22.222656 93.449219 21.421875 93.007812 20.796875 C 92.546875 20.175781 91.679688 18.898438 91.058594 17.964844 C 90.40625 16.984375 89.742188 16.136719 89.492188 15.988281 C 89.109375 15.765625 88.636719 15.738281 86.097656 15.738281 C 83.542969 15.738281 83.128906 15.765625 82.953125 15.988281 C 82.777344 16.183594 82.746094 17.964844 82.746094 26.15625 L 82.746094 36.105469 L 83.101562 36.386719 C 83.410156 36.640625 83.707031 36.667969 85.921875 36.667969 C 88.132812 36.667969 88.414062 36.640625 88.636719 36.386719 C 88.859375 36.132812 88.886719 35.585938 88.871094 30.492188 C 88.84375 25.386719 88.871094 24.867188 89.09375 24.703125 C 89.550781 24.363281 89.949219 24.761719 91.472656 27.0625 C 93.242188 29.722656 96.019531 33.832031 96.964844 35.167969 C 97.9375 36.566406 98.234375 36.667969 101.4375 36.667969 C 103.710938 36.667969 104.09375 36.640625 104.359375 36.402344 L 104.683594 36.148438 L 104.667969 26.320312 C 104.667969 17.132812 104.609375 15.75 104.269531 15.738281 C 102.113281 15.664062 100.859375 15.648438 100.0625 15.691406 Z M 100.0625 15.691406 "/>
<path style=" stroke:none;fill-rule:nonzero;fill:rgb(0%,0%,0%);fill-opacity:1;" d="M 110.574219 15.691406 C 108.152344 15.765625 108.210938 15.707031 108.210938 17.964844 C 108.210938 19.210938 108.269531 19.757812 108.417969 19.980469 C 108.625 20.25 108.90625 20.265625 114.222656 20.339844 C 117.292969 20.382812 119.890625 20.472656 120.007812 20.546875 C 120.304688 20.738281 120.125 21.289062 119.285156 22.863281 C 118.855469 23.632812 118.265625 24.734375 117.96875 25.3125 C 117.660156 25.875 116.9375 27.210938 116.375 28.28125 C 115.800781 29.335938 115.019531 30.773438 114.632812 31.472656 C 112.890625 34.710938 112.273438 36.074219 112.433594 36.34375 C 112.582031 36.566406 112.9375 36.59375 115.492188 36.640625 L 118.382812 36.667969 L 118.828125 36.269531 C 119.0625 36.03125 119.726562 34.945312 120.289062 33.847656 C 122.429688 29.648438 125.558594 23.632812 126.207031 22.417969 C 127.359375 20.308594 127.402344 20.160156 127.433594 18.1875 C 127.464844 17.027344 127.417969 16.300781 127.300781 16.09375 C 127.125 15.796875 126.976562 15.78125 123.242188 15.691406 C 119.535156 15.585938 114.546875 15.601562 110.574219 15.691406 Z M 110.574219 15.691406 "/>
<path style=" stroke:none;fill-rule:nonzero;fill:rgb(0%,0%,0%);fill-opacity:1;" d="M 27.222656 29.246094 C 25.628906 29.410156 24.375 29.675781 22.410156 30.300781 C 20.785156 30.820312 20.476562 31.042969 20.136719 31.859375 C 20.003906 32.183594 19.695312 32.660156 19.441406 32.925781 C 18.984375 33.402344 18.984375 33.445312 18.898438 35.230469 C 18.851562 36.222656 18.824219 38.332031 18.824219 39.90625 C 18.835938 42.25 18.882812 42.800781 19.058594 42.976562 C 19.25 43.1875 20.566406 43.214844 29.671875 43.214844 C 36.90625 43.214844 40.109375 43.15625 40.214844 43.050781 C 40.316406 42.949219 40.375 41.417969 40.375 38.480469 C 40.375 33.847656 40.304688 33.285156 39.699219 32.957031 C 39.566406 32.867188 39.269531 32.453125 39.0625 32.007812 C 38.855469 31.5625 38.574219 31.101562 38.457031 30.96875 C 38.164062 30.671875 35.742188 29.914062 33.953125 29.542969 C 32.285156 29.203125 29.097656 29.066406 27.222656 29.246094 Z M 33.453125 30.285156 C 35.285156 30.613281 37.527344 31.324219 37.957031 31.710938 C 38.324219 32.035156 38.308594 32.542969 37.925781 32.898438 C 37.363281 33.402344 37.277344 33.757812 37.203125 35.734375 C 37.160156 36.800781 37.085938 37.738281 37.027344 37.796875 C 36.878906 37.945312 22.277344 37.902344 22.128906 37.753906 C 22.070312 37.691406 21.996094 36.714844 21.96875 35.601562 L 21.921875 33.566406 L 21.449219 33.074219 C 20.859375 32.46875 20.800781 31.875 21.304688 31.5625 C 21.761719 31.265625 23.503906 30.761719 25.4375 30.359375 C 27.679688 29.898438 31.136719 29.855469 33.453125 30.285156 Z M 20.832031 33.683594 C 21.183594 33.964844 21.183594 33.980469 21.214844 37.589844 C 21.230469 39.5625 21.214844 41.417969 21.171875 41.671875 C 21.082031 42.234375 20.667969 42.53125 20.136719 42.398438 C 19.5625 42.25 19.457031 41.464844 19.515625 37.632812 C 19.5625 34.648438 19.589844 34.160156 19.828125 33.804688 C 20.136719 33.328125 20.359375 33.296875 20.832031 33.683594 Z M 39.238281 33.699219 C 39.566406 33.996094 39.566406 34.085938 39.566406 38.003906 L 39.566406 42.011719 L 39.210938 42.234375 C 38.8125 42.503906 38.191406 42.339844 38.03125 41.9375 C 37.984375 41.804688 37.941406 39.949219 37.941406 37.8125 C 37.941406 34.425781 37.96875 33.90625 38.191406 33.667969 C 38.5 33.3125 38.839844 33.328125 39.238281 33.699219 Z M 36.640625 38.820312 C 36.980469 38.910156 37.054688 39.027344 37.144531 39.59375 C 37.261719 40.4375 37.128906 42 36.90625 42.222656 C 36.65625 42.472656 22.378906 42.457031 22.113281 42.191406 C 21.894531 41.96875 21.921875 39.207031 22.160156 38.96875 C 22.234375 38.894531 23.148438 38.792969 24.183594 38.746094 C 26.882812 38.644531 36.167969 38.6875 36.640625 38.820312 Z M 36.640625 38.820312 "/>
</g>
</svg>
